<?xml version="1.0" standalone="no"?>
<!DOCTYPE svg PUBLIC "-//W3C//DTD SVG 20010904//EN"
 "http://www.w3.org/TR/2001/REC-SVG-20010904/DTD/svg10.dtd">
<svg version="1.0" xmlns="http://www.w3.org/2000/svg"
 width="400.000000pt" height="400.000000pt" viewBox="0 0 400.000000 400.000000"
 preserveAspectRatio="xMidYMid meet">

<g transform="translate(0.000000,400.000000) scale(0.100000,-0.100000)"
fill="#000000" stroke="none">
<path d="M1750 2582 c-130 -86 -409 -271 -620 -411 l-385 -255 83 -25 82 -24
0 -127 c0 -101 -3 -130 -15 -140 -17 -14 -20 -51 -5 -66 7 -7 3 -24 -15 -55
-18 -32 -25 -59 -25 -96 l0 -53 86 0 87 0 -6 56 c-3 30 -15 73 -26 95 -15 27
-18 45 -12 61 9 26 4 46 -16 66 -18 19 -19 242 0 242 6 0 68 -16 137 -35 69
-19 128 -35 133 -35 4 0 7 58 7 129 l0 129 379 151 379 151 294 -115 c161 -64
332 -132 381 -152 l87 -36 0 -128 c0 -71 4 -129 8 -129 12 0 476 130 480 135
3 2 -114 82 -259 178 -145 96 -425 280 -623 410 -197 131 -363 237 -370 236
-6 0 -117 -71 -246 -157z"/>
<path d="M1918 2259 c-17 -9 -18 -37 -18 -365 l0 -354 -32 -20 -33 -20 -3 361
c-2 338 -3 361 -20 354 -9 -4 -47 -18 -84 -32 l-68 -25 0 -344 c0 -189 -4
-344 -8 -344 -5 0 -16 6 -25 13 -16 11 -18 40 -18 324 0 187 -3 315 -9 318 -5
3 -19 1 -30 -5 -19 -10 -20 -20 -20 -310 l0 -300 -25 0 -25 0 0 291 c0 261 -2
291 -16 285 -9 -3 -20 -6 -25 -6 -5 0 -9 -120 -9 -289 0 -288 0 -290 -22 -305
-12 -9 -26 -16 -30 -16 -5 0 -8 130 -8 290 l0 290 -42 -17 c-24 -9 -49 -21
-55 -26 -10 -7 -13 -85 -13 -328 0 -175 3 -320 8 -322 4 -2 25 -2 48 0 32 4
44 11 58 35 26 43 73 68 129 68 55 0 96 -18 126 -56 19 -24 25 -26 80 -22 53
4 64 8 111 51 101 91 219 91 320 0 47 -43 58 -47 111 -51 55 -4 61 -2 80 22
64 81 204 74 255 -12 14 -24 26 -31 58 -35 23 -2 44 -2 49 0 4 2 7 150 7 327
l0 323 -55 20 -55 21 0 -289 c0 -159 -3 -289 -8 -289 -4 0 -18 7 -30 16 -22
15 -22 17 -22 305 0 169 -4 289 -9 289 -5 0 -16 3 -25 6 -14 6 -16 -24 -16
-285 l0 -291 -25 0 -25 0 0 300 c0 290 -1 300 -20 310 -11 6 -24 8 -29 5 -6
-3 -10 -142 -10 -318 -1 -282 -2 -313 -18 -324 -9 -7 -20 -13 -25 -13 -4 0 -8
155 -8 344 l0 344 -67 25 c-38 14 -76 28 -85 32 -17 7 -18 -14 -18 -354 l0
-361 -35 17 -35 17 0 358 0 358 -26 10 c-14 6 -30 10 -35 10 -5 0 -9 -143 -9
-360 l0 -360 -30 0 -30 0 0 360 c0 336 -1 360 -17 360 -10 0 -26 -5 -35 -11z"/>
<path d="M1595 1350 c-137 -10 -265 -19 -283 -19 -32 -1 -33 -2 -30 -38 l3
-38 350 0 350 0 3 58 3 57 -73 -1 c-40 -1 -185 -10 -323 -19z"/>
<path d="M2012 1313 l3 -58 350 0 350 0 3 38 c3 30 0 37 -15 37 -10 0 -148 9
-308 20 -159 11 -312 20 -338 20 l-48 0 3 -57z"/>
</g>
</svg>
